<mxfile host="app.diagrams.net" agent="Mozilla/5.0 (Macintosh; Intel Mac OS X 10_15_7) AppleWebKit/605.1.15 (KHTML, like Gecko) Version/18.3 Safari/605.1.15" version="26.2.8">
  <diagram name="Strona-1" id="mMoBiokOtSKrgwJCoztl">
    <mxGraphModel dx="546" dy="718" grid="1" gridSize="10" guides="1" tooltips="1" connect="1" arrows="1" fold="1" page="1" pageScale="1" pageWidth="827" pageHeight="1169" math="0" shadow="0">
      <root>
        <mxCell id="0" />
        <mxCell id="1" parent="0" />
        <mxCell id="bme4zidYuyOtilQr2RIw-11" value="system" style="shape=umlFrame;whiteSpace=wrap;html=1;pointerEvents=0;" vertex="1" parent="1">
          <mxGeometry x="260" y="400" width="300" height="330" as="geometry" />
        </mxCell>
        <mxCell id="bme4zidYuyOtilQr2RIw-13" value="Zarządzanie użytkownikami" style="shape=folder;fontStyle=1;spacingTop=10;tabWidth=40;tabHeight=14;tabPosition=left;html=1;whiteSpace=wrap;" vertex="1" parent="1">
          <mxGeometry x="290" y="450" width="110" height="50" as="geometry" />
        </mxCell>
        <mxCell id="bme4zidYuyOtilQr2RIw-14" value="Operacje magazynowe" style="shape=folder;fontStyle=1;spacingTop=10;tabWidth=40;tabHeight=14;tabPosition=left;html=1;whiteSpace=wrap;" vertex="1" parent="1">
          <mxGeometry x="430" y="450" width="100" height="50" as="geometry" />
        </mxCell>
        <mxCell id="bme4zidYuyOtilQr2RIw-15" value="Logistyka i raporty" style="shape=folder;fontStyle=1;spacingTop=10;tabWidth=40;tabHeight=14;tabPosition=left;html=1;whiteSpace=wrap;" vertex="1" parent="1">
          <mxGeometry x="435" y="575" width="90" height="60" as="geometry" />
        </mxCell>
        <mxCell id="bme4zidYuyOtilQr2RIw-16" value="Obsługa klienta" style="shape=folder;fontStyle=1;spacingTop=10;tabWidth=40;tabHeight=14;tabPosition=left;html=1;whiteSpace=wrap;" vertex="1" parent="1">
          <mxGeometry x="300" y="570" width="70" height="70" as="geometry" />
        </mxCell>
      </root>
    </mxGraphModel>
  </diagram>
</mxfile>
